<svg xmlns="http://www.w3.org/2000/svg" width="28" height="32" viewBox="0 0 28 32"><g><g><g><path fill="#fff" d="M20.437 5.954c.745-.045 1.453-.72 1.414-1.492-.313.636-.841 1.096-1.414 1.492"/></g><g><path fill="#fff" d="M2.987 12.502c-1.171 1.483-1.79 3.361-1.79 5.247.236-.204.474-.412.736-.585.025.537.043 1.1.317 1.58.126-.357.279-.71.514-1.011.146.582.37 1.149.746 1.624.079-.577.003-1.295.477-1.72-.139-.626-.13-1.27-.044-1.902-.189.08-.375.165-.56.252.033-.407.135-.801.265-1.188-.44.07-.837.27-1.195.527.008-.665.086-1.332.31-1.963.082-.284.252-.555.224-.861"/></g><g><path fill="#fff" d="M19.675 3.727c.981-.752 2.311-1.242 3.52-.76.719.194 1.15.885 1.345 1.561.233.816.044 1.675-.228 2.456.64.224 1.048.805 1.191 1.45-.625-.467-1.362-.754-2.127-.887.353-1.109.466-2.421-.31-3.386.838.423.896 1.445.936 2.266.161-.566.35-1.187.12-1.762-.305-.737-1.038-1.247-1.814-1.37-.903-.181-1.798.118-2.633.432"/></g><g><path fill="#fff" d="M13.99 3.277c.106.178.245.33.413.451-.165.36-.332.722-.456 1.098.003-.298.004-.596-.003-.894a2.132 2.132 0 0 0-.698.11c.309-.19.597-.423.745-.765"/></g><g><path fill="#fff" d="M24.867 6.469c.578.003 1.205.12 1.618.56.645.66.766 1.618.886 2.49a6.57 6.57 0 0 0-2.504-3.05"/></g><g><path fill="#fff" d="M12.064 7.502l.149-.185a3.2 3.2 0 0 1 .268.661c.227-.138.455-.279.688-.41.063.115.19.342.255.457.015-.222.313-.741.426-.276-.176.593-.74.952-.862 1.573-.189-.1-.378-.239-.383-.475-.02-.53-.762-.754-.541-1.345"/></g><g><path fill="#fff" d="M7.591 8.455c.084-.169.173-.334.265-.497.2.098.283.251.25.46.073-.057.363.047.215.16-.23.15-.506-.05-.73-.123"/></g><g><path fill="#fff" d="M8.95 8.444c.459-.645 1.633-.522 1.874.26.014.242-.153.449-.183.686.014.28.226.566.033.83l.338.248c-.103.003-.313.005-.417.007-.225-.334-.323-.75-.623-1.03-.265-.252-.58-.441-.894-.62-.02.324.22.884-.293.913-.338-.26-.226-.742-.385-1.093.18-.07.374-.114.55-.201"/></g><g><path fill="#fff" d="M23.92 7.99c1.206.244 2.078 1.227 2.525 2.328a3.14 3.14 0 0 0-.69-.419c-.106.116-.208.235-.308.355-.128-.958-.842-1.656-1.527-2.263"/></g><g><path fill="#fff" d="M19.65 8.436c.05-.45.471-.011.582.17.121-.083.245-.166.37-.248.099.107.463.249.253.427-.154.15-.339.265-.507.397-.234-.248-.491-.475-.697-.746"/></g><g><path fill="#fff" d="M14.986 9.325c.36-.135.586-.457.872-.691.187.004.37.033.551.088.074.294.268.535.406.803-.563.121-.894.592-1.235 1.007-.253.079-.399-.189-.536-.345-.231.116-.478.211-.742.187.102-.435.458-.711.684-1.05"/></g><g><path fill="#fff" d="M26.118 8.517c1.413.92 2.138 2.779 1.591 4.397-.396-.538-.868-1.12-1.583-1.195.714 1.268 2.022 2.412 1.832 4.008-.221-.708-.613-1.38-1.25-1.785.136.477.294.95.447 1.425a4.082 4.082 0 0 0-.741-.486c-.009.478.34.84.516 1.259.191.37.232.792.303 1.197.203-.299.233-.663.298-1.008.634 1.14.53 2.665-.41 3.612-.427-.958-.525-2.013-.6-3.046-.071-.605-.46-1.282-1.127-1.342.088.323.132.657.079.992-.344-.572-.55-1.272-1.1-1.688l-.349-.049c.548.992 1.067 2.005 1.402 3.09.148-.178.283-.37.401-.572l.17.177c.032-.09.093-.266.123-.356.435 2.068-.014 4.269-1.053 6.094-.157-.837.345-1.691-.052-2.498-.07.277-.134.557-.18.84a35.017 35.017 0 0 1-.232-.39c-.22.274-.191.635-.237.964a11.976 11.976 0 0 1-1.064 3.764l-.298-.206c-.12.19-.226.39-.314.598l-.242-.276a3.756 3.756 0 0 1-.487.724c-.112-.527.022-1.101-.233-1.59-.066.826-.117 1.713-.612 2.415-.235.357-.603.587-.976.778.738-.9 1.245-2.032 1.156-3.217a.42.42 0 0 0-.282.378c-.11.561-.103 1.202-.53 1.642l-.068-.68c-.41.579-.828 1.2-1.474 1.538-.157.102-.37.161-.44.355-.525 1.067-.423 2.298-.322 3.446-.92-.556-1.365-1.656-1.281-2.703.247.362.476.758.861.992-.153-.531-.334-1.095-.18-1.65.172-.628.747-1 1.133-1.487-.712.094-1.418.478-1.766 1.125-.214.432-.578.763-.828 1.173.042-.789.297-1.562.218-2.356-.694.82-.99 1.933-1.833 2.638.069-.718.034-1.446-.171-2.14.232.073.467.147.703.214.166-.714.032-1.52-.535-2.024-.214.08-.14.372-.23.538-.276-.33-.515-.693-.631-1.11.22-.034.436-.1.658-.139.008-.364-.21-.822.163-1.073.37-.407 1.058-.372 1.287.167.341-.027.75-.02.958.304.491.752.269 1.695.226 2.534.527.12 1.415-.182 1.246-.856.3.025.58-.1.7-.389-.052-.113-.101-.226-.15-.337.236-.09.51-.149.671-.362.11-.263-.138-.457-.254-.659l.444-.306a7.97 7.97 0 0 0-.333-.462c.182-.007.364-.02.547-.033-.031-.262-.042-.526-.058-.788a5.527 5.527 0 0 1-.183-.578c.313.025.676.497.95.161.083.054.252.16.336.213-.861 1.195-1.34 2.663-1.443 4.122.72-.985.66-2.367 1.462-3.316.18.223.377.433.598.618-.067-.356-.134-.71-.144-1.072.32.321.63.683 1.08.827a10.034 10.034 0 0 0-.284-2.34c-.245.483-.04 1.038-.08 1.553-.33-.104-.589-.332-.825-.574.079-.383-.1-.685-.401-.904l.192-.396a10.135 10.135 0 0 1-.148-.672c.36-.037.608.22.717.534.272.054.543.112.821.14l-.157-.395.316-.036c-.057-.34-.11-.678-.177-1.013.221.12.454.208.71.23-.202-.553-.346-1.134-.299-1.726.5.258.697.946 1.32.97-.071-.33-.173-.656-.23-.989.251.002.513.014.762-.056-.251-.941-1.566-1.088-1.628-2.113.251.117.513.22.792.25-.015-.548-.024-1.12-.268-1.623-.138-.258-.044-.549.004-.817-.254-.382-.514-.758-.772-1.138.429 0 .86-.005 1.291-.027-.029-.307-.056-.613-.081-.916.93-.155.903 1.284 1.83 1.205-.13-.778-.555-1.57-.33-2.364.138.32.186.778.615.831-.036-.286-.07-.578-.022-.865.262.274.554.523.931.62.011-.904-.439-1.71-.882-2.464"/></g><g><path fill="#fff" d="M14.04 10.919c.19-.13.39-.249.613-.316-.324.476-.349 1.062-.448 1.611l-.272.166c-.533-.36-.05-1.012.108-1.461"/></g><g><path fill="#fff" d="M14.883 10.625a.421.421 0 0 1 .435.229c.193.036.389.076.585.112-.184.37.06.731.17 1.079a2.442 2.442 0 0 1-.748.754c-.428-.099-.385-.527-.523-.85.007-.444.15-.877.081-1.324"/></g><g><path fill="#fff" d="M16.047 11.276c.469-.116.992-.163 1.345-.536.184.09.366.182.548.278-.304.433-.929.423-1.219.836.682.083 1.2-.377 1.779-.622-.155.68-.86.936-1.438 1.152-.354.333-.452 1.038-1.068 1.01a9.017 9.017 0 0 0-.078-.697c.162-.181.309-.376.447-.576a3.777 3.777 0 0 1-.316-.845"/></g><g><path fill="#fff" d="M18.798 11.458c.11-.25.423-.191.643-.227-.1.412-.36.746-.672 1.023-.009.29-.22.501-.305.765-.046.477.003.985.282 1.39.219.507.304 1.063.42 1.601.042.395.177.864-.109 1.2-.194-1.198-.575-2.352-1.015-3.478-.203-.121-.526-.25-.446-.549.09-.399.581-.454.802-.753.24-.272.34-.623.4-.972"/></g><g><path fill="#fff" d="M7.186 15.751c-.16-.319-.17-.737.26-.82.111.259.197.533.14.82-.064.353.383.545.338.907.207.122.41.263.148.483.167.338.407.629.678.89a.82.82 0 0 1-.585.235c.024-.182.04-.364.048-.546-.24-.305-.498-.596-.649-.958.043-.03.129-.09.171-.121-.231-.058-.338-.226-.352-.454l-.362-.029c.05-.138.106-.273.165-.407"/></g><g><path fill="#fff" d="M10.143 17.967c.2.347.329.726.463 1.103-.443.208-.922.042-1.328-.165-.059-.52.476-.763.865-.938zm1.713 2.3l-.138.415.035-.17c-.6.169-1.186.392-1.797.513.571-.39 1.272-.491 1.9-.758zm.33-.057c.101.15.036.227-.196.23m-1.307-4.862c.15-.342.32-.712.651-.913.34-.196.751-.117 1.106-.008-.272.256-.492.56-.679.883a1.06 1.06 0 0 0-.344.324c-.363.213-.621.553-.894.866-.313-.308-.223-.937.16-1.152zm4.666-.3c.081.153.186.293.31.416.087.317.176.651.056.973-.77-.32-1.365-1.071-1.356-1.924.375.086.673.332.99.535zm1.449 1.85c.025.37.112.73.202 1.09a1.17 1.17 0 0 0-.115.697c-.486.198-.739-.324-1.033-.595.396-.346.454-.955.946-1.192zm-2.208 2.625l-.006.19c.74.124 1.524-.025 2.237.25-.513.024-1.02-.048-1.532-.066-.298-.028-.665.013-.86-.268-.213-.063-.457.037-.655-.115 1.075-.302 2.188-.499 3.307-.468-.814.233-1.67.278-2.491.477zM22.824 4.95c-.339-.617-1.035-.953-1.714-1.014-.73-.061-1.32.447-2.01.582l.093-.339c-.244.09-.472.215-.694.35.024-.962 1.15-1.184 1.786-1.658-.414-.167-.824.055-1.232.123.332-.314.727-.544 1.116-.778a3.236 3.236 0 0 0-1.144-.04c.049-.095.143-.28.19-.375a7.932 7.932 0 0 0-2.673.39c.272-.545.745-.935 1.194-1.328-.786.078-1.518.403-2.142.88.014-.499.12-.987.28-1.457-.594.21-1.138.547-1.555 1.026-.159-.431-.317-.86-.486-1.286-.459.51-.811 1.128-.904 1.818-.132-.459-.535-.735-.999-.766.173.522.474.985.762 1.447-.37.159-.771.027-1.12-.116-.006.23-.08.488-.365.378-.25-.202-.197-.559-.253-.84l.574-.116C10.91.763 9.525.79 8.458.91c.604.447 1.336.818 1.64 1.554-.65-.286-1.368-.49-2.075-.297.27.27.546.537.821.804-.744-.169-1.572-.358-2.284.025.746.272 1.426.721 1.92 1.35-.415-.101-.827-.218-1.234-.346.54.364 1.1.875 1.082 1.585-.614-.674-1.336-1.42-2.32-1.406.635.476 1.329 1.081 1.364 1.94.025.4-.321.661-.533.95.48-.073.788-.553 1.292-.553-.396.804-1.056 1.444-1.548 2.19-.39.644-1.131 1.01-1.865 1.067-.019-.455.25-.82.54-1.137-.853.295-1.513.984-2.013 1.713.576.022 1.11-.279 1.69-.213-.194.198-.371.414-.484.671.654-.162 1.2-.567 1.73-.962-.18.655-.544 1.237-.975 1.755a6.85 6.85 0 0 0 1.53-.234 4.85 4.85 0 0 1-1.305 1.79c.1.02.298.056.397.074-.408.268-.866.46-1.354.507.012-.332.106-.65.225-.957-.259.164-.504.35-.736.552-.17-.774.067-1.569.533-2.192-1.103.382-2.124 1.01-2.85 1.94-.063-.735.15-1.509.755-1.971l-.367-.06c1.05-1.888 2.696-3.357 4.472-4.54-.198-.429-.515-.788-.958-.965l-.041.381c-.243-.102-.492-.186-.737-.276l.082.61a3.573 3.573 0 0 0-.772-.146c.179.37.385.727.587 1.087-.262-.01-.525-.023-.785-.034.135.27.283.543.3.854a3.597 3.597 0 0 1-.829-1.213c-.367-.874.007-1.966.792-2.477.658-.481 1.48-.63 2.272-.723-.945-.288-2.03-.398-2.93.088-.56.289-.916.879-1.02 1.489-.128.842.156 1.664.386 2.46a1.184 1.184 0 0 0-1.065.296c-.575.536-.94 1.256-1.24 1.973.741-.198 1.134-.922 1.714-1.365.12-.121.525-.353.495-.002-.3.416-.777.664-1.065 1.093-.82 1.153-1.276 2.535-1.51 3.923.512-.076.795-.547 1.168-.85.087.44-.305.753-.538 1.069-.682.749-.85 1.81-.805 2.79.532-.383.463-1.281 1.157-1.47-.085.814-.758 1.461-.717 2.304.023 1.758.813 3.398 1.757 4.84-.001-.546-.137-1.11.065-1.638.598.877.698 2.003 1.258 2.91a5.74 5.74 0 0 1 .101-1.257c-.363-.605-.722-1.262-.69-1.99.021-.293-.024-.647.216-.862.344 1.16.525 2.383 1.139 3.448-.297.136-.164.444-.127.692.28 1.53 1.185 2.963 2.532 3.762-.158-.767-.702-1.398-.806-2.18.01-.168.103-.254.275-.257.568.8.57 1.867 1.16 2.657.372.523.909.9 1.468 1.202-.044-.643-.482-1.166-.568-1.796.959.675 1.09 2.068.824 3.13.74.336.799 1.256.682 1.96.812-.961.677-2.385.246-3.485-.168-.544-.66-.951-.686-1.537.825.79 1.375 1.869 1.618 2.987.445-.676-.135-1.452-.162-2.168.497.169.665.73 1.104.985-.196-.607-.552-1.146-.726-1.76-.23-.682-.351-1.539.19-2.11.318.553.468 1.284 1.081 1.592.133-.318.21-.653.275-.99.189.409.412.802.721 1.132.26-.407.122-.91.137-1.361l-.416.12c-.675-.34-.297-1.36-.984-1.69-.344-.125-.611.163-.896.297-.264.06-.57.02-.789.204-.312.24-.396.672-.347 1.046.068.598.517 1.089.504 1.705A3.802 3.802 0 0 1 8.49 25.43c-.34-.512-.293-1.17-.592-1.7-.248-.44-.013-.954-.125-1.425a9.77 9.77 0 0 0-.899.722c.212.846.517 1.674.6 2.545-1-.83-1.802-1.87-2.663-2.84a1.156 1.156 0 0 1-.18.528c-.194-.573-.292-1.17-.4-1.762a.746.746 0 0 1 .538.32c.687.854 1.166 1.875 1.982 2.623-.008-.412-.108-.811-.23-1.202l-.362.179c.51-.432.13-1.075.104-1.616-.24.087-.481.173-.725.244.222-.181.46-.343.698-.503a23.633 23.633 0 0 1-.011-.822c-.474-.05-.91.187-1.377.22.54-.462 1.278-.553 1.911-.838-.282-.774.08-1.56-.012-2.337-.28.057-.583.152-.721.427-.35.609-.265 1.34-.323 2.014-.17-.262-.157-.588-.198-.885-.134.153-.265.305-.408.448-.036-.23-.06-.461-.114-.686l-.357.228a3.979 3.979 0 0 1 .237-1.442c.093.39.16.837.568 1.024a9.19 9.19 0 0 1 .515-1.657c-.125-.24-.28-.491-.189-.772.13-.454-.252-.802-.486-1.138-.217.31-.23.91-.667.951.051-.7.297-1.38.672-1.97.347-.422.906-.645 1.173-1.14.099-.25.114-.521.199-.772.318-.108.56.23.595.513.36 1.421 1.145 2.72 2.201 3.731.005.25-.043.498-.187.707.109.508-.253.924-.343 1.4-.015.264.03.526.052.79.313.038.631.057.944.112-.277.051-.556.09-.833.138.004.248.11.473.225.69.333-.102.667-.212 1.014-.259-.286.178-.65.218-.902.442-.185.248.139.434.332.513-.124.643.621 1.097 1.182.88.618-.218 1.147-.638 1.783-.823.458-.098.278-.664.255-.991l-.64.125c.03-.084.096-.256.127-.34a8.277 8.277 0 0 1-1.84.16c.435-.176.916-.163 1.358-.318-.5-.144-1.02-.152-1.532-.217.773-.166 1.553.053 2.323.138a2.921 2.921 0 0 0-1.083-.84c-.584-.228-1.001-.723-1.421-1.168-.266-.23-.022-.572.277-.567.595-.002 1.158.256 1.75.31 1.132.192 2.279.04 3.393-.182l.2.203c-.17.602-.694 1.068-1.29 1.232-.534.165-.992.526-1.236 1.037.244.004.475.077.666.235.944.294 1.85.697 2.751 1.104-1.145-.205-2.203-.744-3.355-.914.03.374.064.838.418 1.054.482.248.993.438 1.446.744.67.42 1.574-.14 1.724-.86.239-.174.237-.498.323-.755l-.319-.227.404-.059c.065-.307.29-.76-.17-.848l.32-.132c.098-.82.204-1.708-.222-2.458-.282-.679-.928-1.084-1.278-1.715-.328-.526-.806-.921-1.285-1.298-.275-.362-.442-.804-.547-1.241-.168.072-.403.123-.437.34.054.327.058.66.038.993-.325.245-.22.676-.403.998 0 .25-.082.498-.32.614-.101-.226-.166-.475-.368-.631a1.914 1.914 0 0 1-.045-.744c-.2-.194-.356-.454-.184-.726l-.297-.213c.237-.134.152-.464-.12-.513l.138-.23-.113-.329a.895.895 0 0 1-.316-.768c-.259-.064-.608-.109-.718.208-.267.71.35 1.347.688 1.917-.193.435-.61.665-.947.965-.313.55-.665 1.093-1.212 1.44a63.913 63.913 0 0 1-.236-2.686 2.925 2.925 0 0 1-1.427-1.527c.62.559 1.307 1.064 2.101 1.347.076.335.096.679.109 1.021.192-.178.353-.385.489-.609-.147-.668-.296-1.353-.189-2.038.065-.213-.016-.412-.172-.559-.537.151-1.1.147-1.647.066.163.655.788.957 1.402 1.044-.52.253-1.16 0-1.484-.45-.304-.582-1.005-.113-1.495-.144.303-.542 1.083-.524 1.438-1.034-.037-.469-.254-.955-.682-1.188-.304.139-.549.457-.895.47-.2-.45.398-.603.612-.895a69.43 69.43 0 0 1-.583.175c.527-.96 1.125-1.897 1.908-2.669.288-.29.65-.483 1.028-.63-.576.576-1.34 1.053-1.567 1.886.369-.277.793-.478 1.255-.533.594-.127 1.314-.035 1.744-.55-.249-.816-.837-1.444-1.554-1.875.695-.1 1.504.086 1.834.776.055-.21.172-.451-.02-.628-.375-.462-.933-.707-1.439-.991.647-.35 1.343.038 1.9.378a20.815 20.815 0 0 0-.35-.692c.303.062.586.18.87.302a1.91 1.91 0 0 0-.464-.698c.387.105.803.182 1.098.479.389-.27.737-.597.992-1 .077.244.136.493.175.747.23-.287.592-.35.94-.303-.208.338-.484.628-.678.976.58-.182 1.195-.326 1.801-.185-.392.204-.774.449-1.001.842.452-.041.886.1 1.235.393-.538.02-1.108.14-1.504.534-.461.42-.639 1.062-.614 1.67.717-.661 2.003-.752 2.596.119.478.563-.005 1.307.268 1.928.123.332.244.727.6.88.537.296 1.01.692 1.475 1.091.555-.161.477-.844.657-1.285-.441-.6-.943-1.152-1.49-1.654l-.323.145c-.293-.456-.834-.805-.857-1.393.007-.259.28-.367.484-.445.364-.129.71-.367 1.112-.336.673.032 1.38-.072 2.014.22.454-.319.847-.73 1.36-.96-.192.398-.502.71-.8 1.025.336-.101.667-.214 1.001-.321a2.767 2.767 0 0 1-.761.811c.341.26.733.44 1.163.495.165-.777.233-1.656-.216-2.356z"/></g><g><path fill="#fff" d="M6.606 21.418c.02-.362-.132-.785.123-1.093.24.048.484.063.72-.018.068.363.076.737-.226 1 .152.308.357.583.57.85-.32.221-.636.45-.95.683-.077-.367-.183-.732-.179-1.109.094-.123.223-.213.337-.319l-.395.006"/></g><g><path fill="#fff" d="M19.357 20.57c.667-.034.96.64 1.263 1.11l-.336.06.012.23.157.233c-.086.048-.17.098-.254.149-.087-.236-.34-.34-.519-.493-.004-.451-.145-.88-.323-1.289"/></g><g><path fill="#fff" d="M11.598 26.751c.245.267.5.525.778.76l.147-.261c.25.288.561.513.92.65.177-.123.258-.388.465-.461.645.62.176 1.606-.484 1.997a7.19 7.19 0 0 0-.508-1.628c-.251.164-.373.44-.486.705-.473-.476-.665-1.131-.832-1.762"/></g></g></g></svg>