<svg xmlns="http://www.w3.org/2000/svg" width="82" height="132" viewBox="0 0 82 132"><g><g><g><path fill="#fff" d="M60.175 16.948c2.13-.126 4.153-2.059 4.043-4.264-.896 1.818-2.406 3.132-4.043 4.264"/></g><g><path fill="#fff" d="M9.379 36.341c-3.349 4.24-5.116 9.608-5.12 15 .679-.584 1.357-1.18 2.106-1.673.071 1.534.123 3.144.908 4.516.359-1.021.796-2.027 1.467-2.89.418 1.664 1.06 3.285 2.134 4.641.224-1.648.007-3.7 1.364-4.914-.398-1.79-.374-3.633-.126-5.439a45.2 45.2 0 0 0-1.601.722c.094-1.164.386-2.292.757-3.396-1.258.201-2.394.77-3.416 1.507.024-1.901.245-3.81.888-5.613.233-.812.718-1.585.639-2.461"/></g><g><path fill="#fff" d="M58.27 10.582c2.804-2.15 6.606-3.55 10.061-2.173 2.055.556 3.29 2.532 3.846 4.464.667 2.331.126 4.789-.65 7.021 1.825.639 2.993 2.3 3.403 4.145-1.787-1.337-3.893-2.157-6.082-2.536 1.01-3.17 1.333-6.922-.887-9.678 2.398 1.207 2.563 4.129 2.678 6.476.461-1.618 1.002-3.392.343-5.037-.872-2.106-2.966-3.566-5.187-3.917-2.579-.516-5.139.34-7.525 1.235"/></g><g><path fill="#fff" d="M41.42 9.296c.3.51.699.943 1.18 1.29-.473 1.03-.95 2.063-1.305 3.14.007-.853.011-1.704-.008-2.556-.687-.016-1.35.106-1.996.312.883-.541 1.708-1.208 2.13-2.186"/></g><g><path fill="#fff" d="M73.112 18.723c1.652.008 3.443.343 4.626 1.6 1.842 1.886 2.19 4.627 2.532 7.12-1.412-3.573-3.956-6.61-7.158-8.72"/></g><g><path fill="#fff" d="M35.871 21.704l.426-.528c.34.588.564 1.238.765 1.89.651-.395 1.302-.798 1.969-1.172.181.327.544.978.73 1.305.043-.635.895-2.118 1.218-.789-.505 1.696-2.118 2.722-2.465 4.497-.54-.288-1.08-.683-1.097-1.357-.055-1.515-2.177-2.158-1.546-3.846"/></g><g><path fill="#fff" d="M22.872 24.442c.24-.482.493-.955.757-1.42.572.28.808.718.714 1.317.209-.165 1.037.13.615.454-.659.43-1.448-.142-2.086-.351"/></g><g><path fill="#fff" d="M26.816 24.434c1.313-1.842 4.67-1.49 5.36.745.04.69-.438 1.282-.525 1.96.04.801.647 1.617.095 2.37.32.238.643.474.966.71-.296.009-.895.016-1.19.02-.644-.954-.924-2.145-1.784-2.942-.757-.722-1.656-1.262-2.555-1.775-.056.927.63 2.528-.837 2.611-.966-.745-.646-2.122-1.1-3.123.517-.202 1.069-.328 1.57-.576"/></g><g><path fill="#fff" d="M70.406 23.136c3.447.695 5.94 3.506 7.218 6.654-.612-.477-1.266-.895-1.976-1.2-.3.332-.592.671-.88 1.014-.363-2.737-2.406-4.733-4.362-6.468"/></g><g><path fill="#fff" d="M57.887 24.402c.142-1.285 1.345-.031 1.66.49.348-.241.703-.478 1.062-.71.28.303 1.321.71.722 1.218-.442.43-.97.757-1.452 1.136-.666-.71-1.404-1.357-1.992-2.134"/></g><g><path fill="#fff" d="M44.347 26.974c1.03-.387 1.673-1.306 2.493-1.976a5.805 5.805 0 0 1 1.574.252c.213.84.765 1.53 1.16 2.296-1.61.347-2.557 1.692-3.53 2.879-.723.225-1.14-.54-1.531-.986-.663.332-1.369.603-2.122.532.292-1.242 1.31-2.031 1.956-2.997"/></g><g><path fill="#fff" d="M76.689 25.633c4.039 2.63 6.11 7.943 4.548 12.57-1.132-1.539-2.481-3.203-4.528-3.416 2.043 3.625 5.782 6.894 5.238 11.458-.632-2.024-1.752-3.948-3.574-5.104.39 1.365.84 2.717 1.278 4.074-.666-.524-1.357-1.021-2.118-1.388-.024 1.365.97 2.402 1.475 3.597.548 1.06.663 2.264.868 3.423.58-.855.666-1.897.852-2.883 1.81 3.262 1.514 7.62-1.175 10.326-1.22-2.737-1.5-5.755-1.712-8.709-.205-1.727-1.318-3.664-3.223-3.833.253.923.379 1.877.225 2.835-.982-1.636-1.574-3.636-3.143-4.827-.249-.036-.75-.103-.998-.138 1.566 2.836 3.049 5.73 4.007 8.835.422-.513.809-1.061 1.148-1.637.122.126.367.378.485.505.09-.257.264-.762.351-1.018 1.242 5.912-.04 12.203-3.01 17.421-.449-2.394.987-4.835-.15-7.143a30.96 30.96 0 0 0-.516 2.402c-.166-.276-.497-.832-.659-1.112-.63.781-.548 1.814-.678 2.753-.43 3.72-1.432 7.376-3.04 10.76-.214-.146-.64-.442-.853-.588a11.739 11.739 0 0 0-.899 1.708c-.174-.197-.517-.592-.69-.789-.387.738-.844 1.44-1.393 2.07-.319-1.506.064-3.147-.666-4.547-.19 2.363-.335 4.899-1.751 6.906-.67 1.022-1.724 1.677-2.789 2.225 2.11-2.576 3.558-5.81 3.305-9.198-.465.185-.788.568-.808 1.08-.316 1.606-.292 3.436-1.515 4.694-.047-.485-.146-1.459-.193-1.944-1.171 1.656-2.366 3.431-4.212 4.397-.45.292-1.061.462-1.262 1.014-1.5 3.053-1.207 6.571-.92 9.853-2.626-1.59-3.9-4.733-3.66-7.727.706 1.033 1.361 2.165 2.462 2.836-.438-1.519-.955-3.132-.517-4.717.493-1.795 2.138-2.86 3.242-4.252-2.035.268-4.055 1.369-5.048 3.218-.612 1.235-1.653 2.181-2.367 3.353.118-2.256.848-4.465.623-6.737-1.984 2.343-2.832 5.526-5.242 7.541.198-2.05.1-4.133-.489-6.117.663.21 1.338.422 2.012.611.473-2.039.09-4.346-1.53-5.786-.612.233-.403 1.065-.659 1.539-.789-.943-1.471-1.98-1.803-3.171.632-.099 1.247-.288 1.882-.399.023-1.041-.6-2.35.465-3.068 1.057-1.164 3.025-1.061 3.68.477.974-.075 2.142-.055 2.737.872 1.404 2.15.77 4.843.647 7.241 1.507.343 4.043-.52 3.562-2.445.856.07 1.656-.288 2-1.113a90.568 90.568 0 0 1-.426-.962c.674-.256 1.455-.426 1.916-1.037.312-.75-.394-1.306-.726-1.882.419-.292.845-.583 1.27-.875-.307-.454-.619-.896-.954-1.322.52-.02 1.041-.055 1.566-.094-.09-.75-.122-1.503-.166-2.252a15.762 15.762 0 0 1-.524-1.653c.895.071 1.932 1.42 2.713.462.24.153.722.457.963.607-2.462 3.416-3.83 7.612-4.126 11.785 2.059-2.816 1.89-6.768 4.18-9.482a12.463 12.463 0 0 0 1.709 1.767c-.19-1.017-.383-2.03-.41-3.064.914.919 1.802 1.952 3.088 2.366-.024-2.252-.265-4.508-.813-6.689-.702 1.38-.114 2.966-.229 4.437-.946-.296-1.684-.946-2.358-1.64.225-1.093-.284-1.957-1.148-2.584.138-.284.414-.848.548-1.132a29.789 29.789 0 0 1-.422-1.92c1.03-.107 1.74.626 2.051 1.526.777.153 1.55.32 2.347.402-.114-.284-.335-.848-.45-1.132.23-.024.679-.075.903-.103-.161-.97-.311-1.936-.504-2.895.63.344 1.297.596 2.027.66-.576-1.583-.986-3.243-.852-4.935 1.428.738 1.992 2.702 3.775 2.773-.206-.947-.497-1.878-.663-2.828.722.004 1.471.04 2.181-.162-.718-2.69-4.476-3.108-4.654-6.038.718.335 1.467.63 2.264.714-.044-1.566-.067-3.203-.765-4.639-.395-.737-.126-1.57.012-2.335-.726-1.092-1.472-2.169-2.21-3.254 1.227 0 2.462-.015 3.693-.078-.083-.876-.162-1.752-.233-2.62 2.658-.441 2.583 3.673 5.23 3.448-.371-2.225-1.586-4.489-.939-6.76.39.915.529 2.224 1.755 2.378-.102-.82-.201-1.653-.063-2.473.75.78 1.586 1.495 2.662 1.77.032-2.583-1.254-4.886-2.52-7.043"/></g><g><path fill="#fff" d="M41.578 31.616c.54-.37 1.113-.71 1.752-.903-.927 1.36-.998 3.037-1.282 4.606-.193.119-.584.355-.777.474-1.523-1.03-.146-2.891.307-4.177"/></g><g><path fill="#fff" d="M44.044 30.784c.548-.052.962.165 1.242.654.552.103 1.112.217 1.672.32-.524 1.057.174 2.09.49 3.084-.557.864-1.27 1.61-2.142 2.158-1.223-.284-1.1-1.507-1.495-2.434.02-1.266.43-2.504.233-3.782"/></g><g><path fill="#fff" d="M47.455 32.657c1.341-.331 2.836-.465 3.846-1.53.524.256 1.045.52 1.565.793-.867 1.238-2.654 1.21-3.482 2.39 1.948.236 3.431-1.077 5.084-1.779-.442 1.944-2.457 2.678-4.11 3.293-1.014.955-1.294 2.97-3.053 2.887a25.692 25.692 0 0 0-.224-1.991c.465-.517.883-1.073 1.277-1.645-.386-.777-.714-1.578-.903-2.418"/></g><g><path fill="#fff" d="M55.375 33.268c.315-.713 1.21-.548 1.838-.65-.288 1.179-1.03 2.134-1.92 2.926-.025.828-.632 1.432-.872 2.185-.13 1.365.007 2.816.804 3.976.627 1.447.872 3.037 1.203 4.575.118 1.128.505 2.47-.312 3.432-.556-3.428-1.644-6.725-2.902-9.944-.58-.347-1.503-.713-1.274-1.57.256-1.14 1.66-1.297 2.291-2.153.686-.777.974-1.779 1.144-2.777"/></g><g><path fill="#fff" d="M21.7 45.66c-.457-.91-.489-2.105.742-2.346.32.742.564 1.527.402 2.347-.185 1.01 1.092 1.558.966 2.591.592.351 1.172.754.422 1.38.478.967 1.164 1.8 1.937 2.545-.446.461-1.037.654-1.672.674.07-.52.114-1.041.138-1.562-.687-.871-1.424-1.704-1.854-2.737l.489-.347c-.663-.166-.966-.647-1.006-1.298l-1.037-.083c.146-.394.304-.78.473-1.163"/></g><g><path fill="#fff" d="M30.354 52.05zm1.349 3.2c-1.29.603-2.683.121-3.866-.478-.17-1.506 1.385-2.213 2.517-2.722.583 1.006.958 2.107 1.349 3.2zm3.636 3.474c-.099.3-.3.9-.402 1.203l.102-.493c-1.747.49-3.45 1.136-5.23 1.487 1.665-1.132 3.704-1.424 5.53-2.197zm.962-.166c.292.434.103.659-.572.667M31.927 45.12c.434-.994.931-2.067 1.894-2.65.99-.568 2.185-.34 3.218-.024-.793.745-1.432 1.624-1.976 2.564-.399.24-.745.547-1.002.938-1.057.62-1.806 1.605-2.6 2.512-.91-.891-.65-2.717.466-3.34zm13.576-.872c.237.446.54.852.903 1.207.253.919.513 1.89.162 2.824-2.24-.931-3.972-3.108-3.944-5.581 1.088.248 1.956.962 2.879 1.55zm4.216 5.368c.075 1.073.328 2.118.588 3.16-.312.634-.442 1.316-.335 2.022-1.412.576-2.15-.938-3.006-1.723 1.152-1.006 1.321-2.773 2.753-3.459zm-6.425 7.616l-.016.548c2.15.363 4.434-.07 6.508.726-1.49.07-2.97-.138-4.457-.19-.867-.082-1.936.036-2.5-.776-.623-.186-1.333.106-1.91-.336 3.128-.875 6.367-1.447 9.624-1.356-2.37.674-4.859.804-7.249 1.384zm23.96-42.948c-.985-1.79-3.013-2.764-4.989-2.942-2.122-.177-3.841 1.298-5.845 1.688l.268-.982c-.71.26-1.372.623-2.019 1.014.071-2.789 3.349-3.435 5.198-4.808-1.206-.485-2.398.158-3.585.355.966-.911 2.114-1.578 3.246-2.256a9.446 9.446 0 0 0-3.329-.118c.142-.273.418-.813.556-1.085-2.642-.087-5.269.331-7.781 1.132.792-1.582 2.169-2.714 3.474-3.854-2.287.225-4.417 1.168-6.231 2.552.04-1.447.35-2.863.812-4.228-1.727.612-3.309 1.59-4.524 2.978A169.09 169.09 0 0 0 41.093 0c-1.337 1.479-2.362 3.274-2.63 5.273-.387-1.329-1.558-2.13-2.907-2.22.5 1.514 1.376 2.855 2.216 4.196-1.076.462-2.244.08-3.261-.335-.016.666-.23 1.416-1.061 1.096-.726-.587-.572-1.62-.734-2.437.552-.11 1.112-.225 1.668-.335-1.794-3.096-5.829-3.021-8.933-2.674 1.76 1.297 3.889 2.374 4.772 4.508-1.889-.829-3.98-1.42-6.038-.86.785.785 1.59 1.558 2.39 2.33-2.165-.488-4.575-1.036-6.646.076 2.17.789 4.15 2.09 5.585 3.912a56.206 56.206 0 0 1-3.59-1.001c1.57 1.057 3.2 2.54 3.148 4.598-1.786-1.956-3.885-4.117-6.752-4.078 1.85 1.38 3.87 3.136 3.972 5.628.07 1.16-.935 1.917-1.55 2.757 1.396-.213 2.291-1.605 3.759-1.605-1.152 2.331-3.073 4.189-4.505 6.354-1.136 1.866-3.293 2.927-5.427 3.092-.055-1.317.726-2.378 1.57-3.297-2.48.856-4.402 2.856-5.857 4.97 1.676.063 3.23-.809 4.918-.62-.564.576-1.08 1.203-1.408 1.949 1.901-.47 3.49-1.645 5.033-2.793-.52 1.901-1.582 3.59-2.836 5.092a19.979 19.979 0 0 0 4.453-.678 14.07 14.07 0 0 1-3.798 5.194c.288.055.868.162 1.156.213-1.188.777-2.52 1.337-3.94 1.471.035-.962.307-1.885.654-2.776a17.533 17.533 0 0 0-2.142 1.6c-.493-2.243.194-4.55 1.55-6.357-3.21 1.108-6.18 2.93-8.294 5.628-.182-2.134.438-4.378 2.197-5.719L6.76 31.98c3.053-5.479 7.845-9.738 13.012-13.174-.576-1.242-1.5-2.283-2.789-2.796a99.58 99.58 0 0 1-.118 1.104c-.706-.295-1.432-.54-2.146-.8.079.587.158 1.179.24 1.767-.733-.213-1.486-.375-2.247-.422.52 1.076 1.12 2.11 1.707 3.155l-2.283-.099c.394.785.824 1.574.875 2.477-1.021-1.002-1.877-2.185-2.413-3.518-1.07-2.536.02-5.703 2.303-7.186 1.917-1.396 4.307-1.83 6.61-2.098-2.749-.836-5.904-1.156-8.523.256-1.633.836-2.666 2.548-2.97 4.319-.37 2.441.454 4.827 1.124 7.139-1.116-.225-2.276.063-3.1.856-1.672 1.554-2.737 3.644-3.609 5.723 2.158-.572 3.301-2.675 4.99-3.96.35-.351 1.526-1.022 1.439-.004-.872 1.207-2.26 1.924-3.1 3.17-2.386 3.345-3.711 7.353-4.394 11.38 1.491-.221 2.315-1.586 3.4-2.465.252 1.273-.887 2.184-1.566 3.1C1.218 42.075.73 45.155.86 48c1.55-1.112 1.35-3.72 3.369-4.268-.249 2.363-2.205 4.24-2.087 6.685.067 5.1 2.367 9.857 5.112 14.042-.004-1.586-.398-3.223.19-4.753 1.738 2.544 2.03 5.81 3.66 8.44-.016-1.222.043-2.449.295-3.644-1.057-1.755-2.102-3.66-2.011-5.774.063-.848-.067-1.878.63-2.5 1.003 3.364 1.527 6.913 3.314 10.001-.864.395-.477 1.29-.367 2.008.812 4.437 3.447 8.598 7.367 10.914-.46-2.225-2.042-4.055-2.346-6.323.031-.49.3-.738.8-.745 1.653 2.319 1.66 5.415 3.373 7.707 1.084 1.518 2.646 2.61 4.275 3.486-.13-1.866-1.404-3.38-1.652-5.21 2.788 1.96 3.17 5.999 2.398 9.08 2.153.977 2.323 3.643 1.983 5.687 2.363-2.789 1.968-6.918.714-10.109-.489-1.578-1.917-2.761-1.996-4.46 2.403 2.29 4.004 5.422 4.71 8.664 1.293-1.96-.395-4.212-.473-6.287 1.447.49 1.936 2.118 3.214 2.856-.572-1.76-1.605-3.325-2.114-5.104-.67-1.98-1.022-4.465.556-6.121.923 1.602 1.36 3.723 3.144 4.618.386-.923.61-1.897.8-2.87.548 1.182 1.2 2.323 2.098 3.28.758-1.179.355-2.638.399-3.947-.304.086-.907.26-1.211.35-1.964-.99-.864-3.948-2.863-4.906-1.002-.363-1.78.473-2.607.864-.77.174-1.657.059-2.296.592-.907.698-1.152 1.948-1.01 3.032.198 1.736 1.503 3.16 1.467 4.946-2.492-.725-4.74-2.346-6.152-4.531-.99-1.483-.852-3.392-1.724-4.93-.722-1.278-.035-2.77-.363-4.134-.919.639-1.779 1.353-2.615 2.094.616 2.454 1.503 4.856 1.747 7.384-2.91-2.41-5.245-5.427-7.75-8.24a3.344 3.344 0 0 1-.524 1.53c-.564-1.66-.848-3.391-1.164-5.11.647.047 1.187.421 1.566.93 2 2.477 3.392 5.439 5.767 7.608-.024-1.194-.316-2.354-.667-3.486-.264.13-.793.39-1.057.517 1.487-1.251.379-3.117.304-4.686-.699.252-1.4.5-2.11.706.646-.525 1.34-.994 2.03-1.46a68.434 68.434 0 0 1-.031-2.382c-1.38-.146-2.65.54-4.007.64 1.57-1.342 3.72-1.606 5.561-2.434-.82-2.245.233-4.524-.035-6.78-.813.165-1.696.441-2.099 1.238-1.017 1.767-.769 3.889-.938 5.845-.497-.761-.458-1.707-.576-2.567-.39.441-.773.883-1.188 1.297-.106-.666-.177-1.337-.33-1.988-.261.162-.782.493-1.042.66-.035-1.429.209-2.84.69-4.182.272 1.128.466 2.426 1.653 2.97.37-1.64.824-3.262 1.499-4.808-.363-.694-.813-1.423-.549-2.24.379-1.317-.733-2.327-1.416-3.301-.63.9-.666 2.638-1.94 2.76.15-2.03.864-4.003 1.956-5.714 1.01-1.227 2.635-1.874 3.412-3.31.288-.721.331-1.51.58-2.24.926-.311 1.629.667 1.731 1.491 1.045 4.122 3.333 7.892 6.405 10.823.016.726-.126 1.443-.544 2.05.316 1.476-.738 2.683-.998 4.063-.043.765.087 1.527.15 2.292.911.11 1.838.165 2.75.323-.81.15-1.622.26-2.426.403.011.717.319 1.372.654 2 .97-.296 1.94-.616 2.95-.75-.832.516-1.893.63-2.622 1.282-.54.717.402 1.258.966 1.487-.363 1.865 1.806 3.183 3.44 2.555 1.798-.635 3.336-1.853 5.186-2.39 1.333-.283.808-1.925.741-2.875l-1.862.363c.091-.245.28-.742.371-.986-1.755.374-3.565.489-5.356.465 1.266-.513 2.666-.473 3.952-.923-1.455-.418-2.966-.441-4.457-.63 2.248-.482 4.52.153 6.76.402-.86-1.038-1.912-1.906-3.15-2.438-1.7-.663-2.915-2.098-4.138-3.388-.773-.67-.063-1.66.808-1.645 1.732-.008 3.369.742 5.092.9 3.293.556 6.63.114 9.872-.529.146.146.438.438.584.588-.497 1.747-2.02 3.1-3.755 3.573-1.554.481-2.887 1.526-3.597 3.01.71.011 1.385.224 1.937.682 2.749.852 5.383 2.023 8.006 3.202-3.332-.595-6.409-2.157-9.761-2.65.086 1.085.185 2.43 1.214 3.057 1.405.718 2.891 1.27 4.209 2.157 1.948 1.219 4.579-.406 5.017-2.493.694-.504.69-1.447.938-2.193-.311-.22-.623-.441-.926-.658.291-.044.88-.126 1.175-.17.19-.891.844-2.205-.497-2.46.233-.095.702-.285.935-.383.284-2.379.591-4.954-.647-7.131-.82-1.969-2.702-3.144-3.72-4.974-.954-1.526-2.346-2.674-3.739-3.767-.8-1.049-1.285-2.33-1.593-3.6-.489.208-1.171.358-1.27.985.158.951.17 1.917.11 2.884-.946.71-.642 1.96-1.171 2.895-.004.725-.24 1.443-.935 1.779-.292-.655-.48-1.377-1.068-1.83a5.534 5.534 0 0 1-.13-2.158c-.58-.564-1.038-1.317-.537-2.106-.217-.154-.647-.466-.864-.62.69-.386.442-1.344-.347-1.486.099-.166.3-.5.398-.667-.078-.237-.244-.714-.327-.954-.67-.564-.982-1.365-.919-2.229-.753-.185-1.77-.315-2.09.604-.777 2.058 1.017 3.908 2.003 5.56-.564 1.263-1.775 1.93-2.756 2.801-.912 1.594-1.937 3.171-3.527 4.177-.268-2.595-.528-5.19-.686-7.793a8.499 8.499 0 0 1-4.153-4.43c1.806 1.621 3.802 3.088 6.113 3.91.221.969.28 1.967.316 2.96a8.093 8.093 0 0 0 1.424-1.766c-.426-1.937-.86-3.925-.549-5.912.19-.62-.047-1.196-.5-1.621-1.562.437-3.2.425-4.793.189.474 1.9 2.292 2.777 4.079 3.029-1.515.734-3.376 0-4.32-1.306-.883-1.688-2.922-.327-4.35-.418.884-1.57 3.152-1.518 4.185-2.997-.106-1.36-.737-2.773-1.984-3.447-.883.402-1.597 1.325-2.603 1.36-.584-1.305 1.156-1.747 1.779-2.595-.422.13-1.27.383-1.696.509 1.534-2.785 3.274-5.502 5.553-7.742.837-.84 1.894-1.4 2.99-1.826-1.676 1.668-3.897 3.052-4.56 5.47 1.073-.805 2.308-1.388 3.653-1.546 1.727-.37 3.822-.103 5.076-1.597-.726-2.367-2.438-4.19-4.524-5.44 2.023-.287 4.378.25 5.336 2.253.162-.612.501-1.31-.059-1.822-1.088-1.341-2.713-2.051-4.185-2.876 1.882-1.013 3.909.11 5.53 1.097a59.795 59.795 0 0 0-1.017-2.008c.88.182 1.703.525 2.528.876a5.546 5.546 0 0 0-1.349-2.024c1.124.304 2.335.529 3.195 1.389 1.132-.781 2.145-1.732 2.887-2.9.225.707.394 1.429.509 2.166.666-.832 1.723-1.017 2.733-.88-.604.983-1.408 1.823-1.972 2.833 1.688-.529 3.478-.947 5.241-.537-1.14.592-2.252 1.302-2.914 2.442 1.317-.119 2.58.291 3.597 1.14-1.566.059-3.227.406-4.378 1.55-1.341 1.218-1.858 3.08-1.787 4.847 2.087-1.921 5.83-2.185 7.553.343 1.392 1.633-.012 3.79.781 5.593.359.962.71 2.11 1.743 2.551 1.566.86 2.943 2.008 4.295 3.168 1.614-.47 1.389-2.45 1.913-3.728a33.403 33.403 0 0 0-4.338-4.8c-.237.107-.706.316-.939.422-.852-1.325-2.426-2.334-2.493-4.042.02-.75.813-1.065 1.409-1.29 1.057-.375 2.062-1.065 3.234-.974 1.96.09 4.015-.21 5.86.635 1.322-.923 2.466-2.118 3.96-2.78-.56 1.15-1.463 2.054-2.33 2.97.978-.293 1.94-.62 2.914-.932-.568.939-1.333 1.72-2.216 2.355.994.753 2.133 1.278 3.384 1.436.48-2.256.678-4.804-.627-6.836z"/></g><g><path fill="#fff" d="M20.016 62.088c.055-1.033-.379-2.244.35-3.124.687.138 1.385.182 2.06-.05.193 1.036.217 2.105-.647 2.859.434.88 1.021 1.664 1.633 2.43a87.487 87.487 0 0 0-2.718 1.952c-.22-1.05-.524-2.095-.512-3.172.268-.35.639-.607.962-.91l-1.128.015"/></g><g><path fill="#fff" d="M57.035 59.655c1.906-.099 2.746 1.83 3.61 3.17l-.959.174.031.655.45.666c-.244.139-.485.28-.726.427-.248-.675-.974-.97-1.483-1.409-.012-1.29-.414-2.516-.923-3.683"/></g><g><path fill="#fff" d="M34.538 77.758c.698.761 1.428 1.499 2.225 2.17.102-.186.311-.56.418-.746a6.621 6.621 0 0 0 2.63 1.862c.505-.355.738-1.113 1.33-1.322 1.842 1.771.5 4.591-1.385 5.711-.315-1.6-.769-3.175-1.451-4.654-.718.47-1.065 1.255-1.388 2.016-1.353-1.361-1.902-3.234-2.379-5.037"/></g></g><g><g><path fill="#fff" d="M11.751 107.65c1.506.04 3.038.772 3.917 2.038-.04 1.225-1.2 2.025-2.238 2.464 1.026.453 2.198 1.293 2.185 2.532-1.626 2.238-5.143 2.558-7.234.786.013-2.252.013-4.49.053-6.741a5.218 5.218 0 0 1 3.317-1.08zm.307-3.158c-1.959-.093-3.984.413-5.596 1.559-.812-.626-1.838-1.186-2.904-.933-1.12.267-1.839 1.266-2.358 2.212.8-.32 1.785-.56 2.544-.014.347.294.826 2.785.786 3.278-.026 2.318-.08 2.518-.093 4.836-.013.32.027.653-.12.932-.4.853-1.239 1.386-2.078 1.746.933.4 1.905 1.079 2.145 2.118-.013 2.584-.04 5.169-.067 7.753-.16.453-.546.813-.959 1.04-.746.386-1.625.12-2.358-.174.52.92 1.172 1.905 2.238 2.225 1.08.32 2.172-.226 3.024-.866.813.64 1.852 1.2 2.918.946 1.119-.266 1.838-1.265 2.358-2.211-.746.293-1.665.533-2.411.093-.36-.253-.746-.586-.866-1.026.013-2.411.053-4.836.066-7.26-.026-.52.213-1 .52-1.4a8.753 8.753 0 0 0 4.423.28c2.81-.533 5.409-2.544 6.275-5.315.266-1.04 1.239-1.706 2.185-2.092-.653-.293-1.293-.68-1.732-1.252-.4-.493-.427-1.16-.72-1.719-1.252-2.784-4.21-4.61-7.22-4.756"/></g><g><path fill="#fff" d="M40.061 104.559c-.106-.68-.586-1.24-1.172-1.559-.053.786-.347 1.599-1 2.078-.732.56-1.731.506-2.557.253-1.372-.413-2.785-.719-4.223-.786-1.546-.08-3.184.147-4.463 1.066-.826-.666-1.892-1.239-2.985-.972-1.119.28-1.838 1.265-2.371 2.211.546-.2 1.132-.386 1.732-.32.706.067 1.305.6 1.598 1.226-.026 2.571-.08 5.142-.146 7.714-.173 1.172-1.266 1.891-2.278 2.304.986.44 2.025 1.2 2.198 2.359 0 .306 0 .599.013.905-.013 2.292-.026 4.583-.066 6.861-.147.453-.546.813-.96 1.04-.759.386-1.625.12-2.357-.174.52.92 1.172 1.905 2.238 2.225 1.079.32 2.171-.226 3.024-.866.813.64 1.852 1.186 2.917.946 1.12-.266 1.826-1.265 2.359-2.211-.76.293-1.666.533-2.412.093-.36-.253-.746-.586-.866-1.026 0-1.639.027-3.277.04-4.916l.027-.026c.026-.613-.067-1.28.213-1.852.373-.813 1.292-1.36 2.185-1.213.56.08 1.225-.16 1.678.253.36.28.667.667.773 1.133.173.68-.08 1.372-.333 1.998.96-.506 1.985-1.185 2.292-2.291.306-1.08-.227-2.172-.866-3.024.64-.813 1.212-1.852.985-2.931-.253-1.146-1.265-1.892-2.224-2.438.2.546.386 1.132.32 1.718-.08.706-.6 1.333-1.253 1.599-.6.013-1.199 0-1.798-.04-1.026-.133-1.852-1.092-1.839-2.132.04-1.159.013-2.331.08-3.49.266-1 1.092-1.825 2.078-2.145 1.173-.373 2.425-.306 3.624-.093 1.026.28 1.998.866 2.664 1.705.6.773.52 1.839.08 2.665 1.08-.547 2.092-1.4 2.465-2.585.293-.893.107-1.865-.32-2.678.773-.533 1.053-1.625.906-2.584z"/></g><g><path fill="#fff" d="M60.098 104.572c-.106-.68-.586-1.239-1.172-1.559-.054.786-.347 1.599-1 2.079-.732.56-1.731.506-2.557.253-1.373-.413-2.785-.72-4.224-.786-1.545-.08-3.184.146-4.463 1.065-.826-.666-1.891-1.239-2.984-.972-1.119.28-1.838 1.266-2.371 2.211.546-.2 1.132-.386 1.732-.32.706.067 1.305.6 1.598 1.226-.026 2.572-.08 5.143-.146 7.714-.173 1.172-1.266 1.892-2.278 2.305.986.44 2.025 1.199 2.198 2.358 0 .306 0 .6.013.906-.013 2.291-.026 4.583-.066 6.86-.147.454-.547.813-.96 1.04-.759.386-1.625.12-2.358-.173.52.919 1.173 1.905 2.239 2.225 1.079.32 2.171-.227 3.024-.866.812.64 1.852 1.185 2.917.945 1.12-.266 1.825-1.265 2.358-2.211-.759.293-1.665.533-2.41.093-.36-.253-.747-.586-.867-1.026 0-1.638.027-3.277.04-4.916l.027-.026c.026-.613-.067-1.28.213-1.852.373-.813 1.292-1.359 2.185-1.212.56.08 1.225-.16 1.678.253.36.28.666.666.773 1.132.173.68-.08 1.372-.333 1.999.96-.507 1.985-1.186 2.291-2.292.307-1.079-.226-2.171-.866-3.024.64-.813 1.213-1.852.986-2.931-.253-1.146-1.265-1.892-2.224-2.438.2.546.386 1.132.32 1.719-.08.706-.6 1.332-1.253 1.598-.6.014-1.2 0-1.799-.04-1.025-.133-1.851-1.092-1.838-2.131.04-1.16.013-2.332.08-3.49.266-1 1.092-1.826 2.078-2.146 1.172-.373 2.425-.306 3.624-.093 1.026.28 1.998.866 2.664 1.705.6.773.52 1.839.08 2.665 1.08-.546 2.092-1.399 2.465-2.585.293-.892.106-1.865-.32-2.678.773-.546 1.053-1.625.906-2.584z"/></g><g><path fill="#fff" d="M72.022 107.503c1.505.027 3.037.76 3.916 2.038-.04 1.226-1.199 2.025-2.238 2.465 1.026.453 2.198 1.292 2.185 2.531-1.625 2.238-5.142 2.558-7.234.786.013-2.251.013-4.49.053-6.741a5.218 5.218 0 0 1 3.318-1.08zm.306-3.17c-1.958-.08-3.983.412-5.595 1.558-.813-.626-1.839-1.186-2.905-.933-1.119.267-1.838 1.266-2.358 2.212.8-.32 1.785-.56 2.545-.013.346.293.826 2.784.786 3.277-.027 2.318-.08 2.518-.093 4.836-.014.32.026.653-.12.932-.4.853-1.24 1.386-2.079 1.746.933.4 1.905 1.079 2.145 2.118-.013 2.584-.04 5.169-.066 7.754-.16.452-.547.812-.96 1.039-.746.386-1.625.12-2.358-.174.52.92 1.173 1.906 2.239 2.225 1.079.32 2.171-.226 3.024-.866.812.64 1.852 1.2 2.917.946 1.12-.266 1.839-1.265 2.358-2.211-.746.293-1.665.533-2.411.093-.36-.253-.746-.586-.866-1.026.013-2.411.053-4.836.067-7.26-.027-.52.213-1 .52-1.4a8.753 8.753 0 0 0 4.422.28c2.811-.533 5.41-2.544 6.275-5.315.267-1.04 1.24-1.706 2.185-2.092-.653-.293-1.292-.68-1.732-1.252-.4-.493-.426-1.16-.72-1.719-1.252-2.784-4.21-4.61-7.22-4.756"/></g></g></g></svg>